<svg id="Layer_1" data-name="Layer 1" xmlns="http://www.w3.org/2000/svg" xmlns:xlink="http://www.w3.org/1999/xlink" viewBox="0 0 529.1 457.46"><defs><linearGradient id="linear-gradient" x1="319.23" y1="309.31" x2="338.97" y2="675.45" gradientUnits="userSpaceOnUse"><stop offset="0" stop-color="#010101" stop-opacity="0"/><stop offset="0.95" stop-color="#010101"/></linearGradient><linearGradient id="linear-gradient-2" x1="395.2" y1="-47.69" x2="316.25" y2="349.05" gradientUnits="userSpaceOnUse"><stop offset="0" stop-color="#fff" stop-opacity="0"/><stop offset="0.66" stop-color="#fff"/></linearGradient><linearGradient id="linear-gradient-3" x1="283.1" y1="112.17" x2="272.41" y2="148.03" xlink:href="#linear-gradient"/><linearGradient id="linear-gradient-4" x1="292.69" y1="118.97" x2="309.47" y2="148.25" xlink:href="#linear-gradient"/><linearGradient id="linear-gradient-5" x1="303.81" y1="115.19" x2="338.36" y2="183.29" xlink:href="#linear-gradient"/><linearGradient id="linear-gradient-6" x1="263.88" y1="107.75" x2="238.55" y2="154.14" xlink:href="#linear-gradient"/><linearGradient id="linear-gradient-7" x1="354.62" y1="249.05" x2="249.83" y2="578.67" xlink:href="#linear-gradient"/><linearGradient id="linear-gradient-8" x1="216.96" y1="408.65" x2="371.41" y2="211.27" xlink:href="#linear-gradient"/><linearGradient id="linear-gradient-9" x1="388.38" y1="307.36" x2="427.86" y2="532.37" xlink:href="#linear-gradient"/><linearGradient id="linear-gradient-10" x1="405.24" y1="284.1" x2="458.53" y2="361.08" xlink:href="#linear-gradient"/><linearGradient id="linear-gradient-11" x1="373.64" y1="211.14" x2="498.15" y2="438.81" gradientTransform="matrix(0.92, -0.44, 0.45, 0.89, -93.96, 200.8)" xlink:href="#linear-gradient"/><linearGradient id="linear-gradient-12" x1="118.05" y1="363.3" x2="111.7" y2="395.18" gradientTransform="translate(245.06 -140.42)" xlink:href="#linear-gradient-2"/><linearGradient id="linear-gradient-13" x1="66.23" y1="377" x2="713.64" y2="745.44" gradientTransform="translate(92.73 -282.27) scale(1.27 1.18)" xlink:href="#linear-gradient-2"/><linearGradient id="linear-gradient-14" x1="67.45" y1="374.86" x2="714.86" y2="743.3" gradientTransform="translate(92.02 -279.45) scale(1.27 1.18)" xlink:href="#linear-gradient-2"/><linearGradient id="linear-gradient-15" x1="68.67" y1="372.72" x2="716.07" y2="741.17" gradientTransform="translate(91.32 -276.62) scale(1.27 1.18)" xlink:href="#linear-gradient-2"/><linearGradient id="linear-gradient-16" x1="69.89" y1="370.58" x2="717.29" y2="739.03" gradientTransform="translate(90.62 -273.8) scale(1.27 1.18)" xlink:href="#linear-gradient-2"/><linearGradient id="linear-gradient-17" x1="71.1" y1="368.44" x2="718.51" y2="736.89" gradientTransform="translate(89.91 -270.98) scale(1.27 1.18)" xlink:href="#linear-gradient-2"/><linearGradient id="linear-gradient-18" x1="72.32" y1="366.31" x2="719.73" y2="734.75" gradientTransform="translate(89.21 -268.16) scale(1.27 1.18)" xlink:href="#linear-gradient-2"/><linearGradient id="linear-gradient-19" x1="73.54" y1="364.17" x2="720.94" y2="732.61" gradientTransform="translate(88.51 -265.34) scale(1.27 1.18)" xlink:href="#linear-gradient-2"/><linearGradient id="linear-gradient-20" x1="74.76" y1="362.03" x2="722.16" y2="730.47" gradientTransform="translate(87.8 -262.51) scale(1.27 1.18)" xlink:href="#linear-gradient-2"/><linearGradient id="linear-gradient-21" x1="75.97" y1="359.89" x2="723.38" y2="728.33" gradientTransform="translate(87.1 -259.69) scale(1.27 1.18)" xlink:href="#linear-gradient-2"/><linearGradient id="linear-gradient-22" x1="156.78" y1="380.22" x2="169.21" y2="451.06" gradientTransform="matrix(1, 0.14, -0.3, 0.92, 262.58, -2.66)" xlink:href="#linear-gradient"/><linearGradient id="linear-gradient-23" x1="364.98" y1="104.82" x2="350.87" y2="175.69" gradientTransform="translate(74.73 -18.14)" xlink:href="#linear-gradient-2"/><linearGradient id="linear-gradient-24" x1="365.42" y1="131.08" x2="351.32" y2="201.96" gradientTransform="translate(71.82 -18.25)" xlink:href="#linear-gradient-2"/><linearGradient id="linear-gradient-25" x1="365.87" y1="157.35" x2="351.76" y2="228.22" gradientTransform="translate(68.91 -18.36)" xlink:href="#linear-gradient-2"/></defs><title>Card Payment online 2</title><path d="M218.74,445.11c46.39-7.81,93.47,4.12,140.07,10.58S456.76,461.93,494.6,434c44.52-32.88,57-94.24,55.83-149.58-1.31-64.06-18.07-131-62.89-176.81-23.9-24.42-54.24-41.36-84.24-57.7C365.79,29.45,326.35,8.9,283.66,7.5A142.18,142.18,0,0,0,182.8,45.61c-21.27,20-35.71,46.06-53.45,69.27C96.59,157.74,51.43,192.63,31.5,242.75,13.36,288.36,20,343,48.59,382.89s78.13,63.82,127.14,61.36" transform="translate(-21.4 -7.43)" fill="#4c65ca" opacity="0.24" style="isolation:isolate"/><path d="M175.72,402.87,441,438.82a18.42,18.42,0,0,0,20.63-15.14l20.43-118.75a18.44,18.44,0,0,0-15.54-21.37l-241-34.67a18.42,18.42,0,0,0-19.85,11.68L161,378.05A18.43,18.43,0,0,0,175.72,402.87Z" transform="translate(-21.4 -7.43)" fill="#4c65ca"/><path d="M175.72,402.87,441,438.82a18.42,18.42,0,0,0,20.63-15.14l20.43-118.75a18.44,18.44,0,0,0-15.54-21.37l-241-34.67a18.42,18.42,0,0,0-19.85,11.68L161,378.05A18.43,18.43,0,0,0,175.72,402.87Z" transform="translate(-21.4 -7.43)" fill="url(#linear-gradient)"/><path d="M225.15,240l246.66,35.4A15.35,15.35,0,0,0,489.1,263L520.36,91.62a15.36,15.36,0,0,0-13.28-18L235.85,41a15.36,15.36,0,0,0-17.18,14.64L212,224.22A15.36,15.36,0,0,0,225.15,240Z" transform="translate(-21.4 -7.43)" fill="#4c65ca"/><path d="M233.13,239.5l229.87,33a14.31,14.31,0,0,0,16.12-11.6l29.13-159.71A14.31,14.31,0,0,0,495.88,84.4L243.1,54a14.32,14.32,0,0,0-16,13.65l-6.23,157.08A14.32,14.32,0,0,0,233.13,239.5Z" transform="translate(-21.4 -7.43)" fill="#4c65ca"/><path d="M233.13,239.5l229.87,33a14.31,14.31,0,0,0,16.12-11.6l29.13-159.71A14.31,14.31,0,0,0,495.88,84.4L243.1,54a14.32,14.32,0,0,0-16,13.65l-6.23,157.08A14.32,14.32,0,0,0,233.13,239.5Z" transform="translate(-21.4 -7.43)" fill="url(#linear-gradient-2)"/><polygon points="269.97 117.23 280.58 107.61 298.09 110.56 293.65 130.3 263.06 125.86 269.97 117.23" fill="#4c65ca"/><polygon points="269.97 117.23 280.58 107.61 298.09 110.56 293.65 130.3 263.06 125.86 269.97 117.23" fill="url(#linear-gradient-3)"/><polygon points="290.53 118.13 308.54 118.87 310.26 132.44 282.38 128.74 290.53 118.13" fill="#4c65ca"/><polygon points="290.53 118.13 308.54 118.87 310.26 132.44 282.38 128.74 290.53 118.13" fill="url(#linear-gradient-4)"/><polygon points="303.52 111.8 293.65 130.3 321.04 133.02 320.55 113.03 303.52 111.8" fill="#4c65ca"/><polygon points="303.52 111.8 293.65 130.3 321.04 133.02 320.55 113.03 303.52 111.8" fill="url(#linear-gradient-5)"/><polygon points="242.99 124.05 242 103.99 273.91 104.31 276.22 128.99 242.99 124.05" fill="#4c65ca"/><polygon points="242.99 124.05 242 103.99 273.91 104.31 276.22 128.99 242.99 124.05" fill="url(#linear-gradient-6)"/><path d="M177.2,391.52l265.31,36a18.42,18.42,0,0,0,20.63-15.14l20.43-118.75A18.42,18.42,0,0,0,468,272.22L227,237.54a18.42,18.42,0,0,0-19.85,11.68L162.45,366.7A18.43,18.43,0,0,0,177.2,391.52Z" transform="translate(-21.4 -7.43)" fill="#4c65ca"/><path d="M428.55,377.22,211.36,349.1c-13.05-1.91-21-14.14-17.69-27.31l20.18-49.44c3.28-13.17,16.52-22.3,29.58-20.38l203.76,29.88c13.05,1.91,21,14.14,17.69,27.31l-6.75,47.68C454.85,370,441.6,379.14,428.55,377.22Z" transform="translate(-21.4 -7.43)" fill="url(#linear-gradient-7)"/><path d="M260.71,391.64c-1.06,3.94-2.22,8.05-5,11-5.66,5.89-15.22,4.71-23.23,3.09-1.92-.39-3.94-.82-5.42-2.11a10.1,10.1,0,0,1-2.62-4.51c-6-17.54.39-36.92,9.23-53.21,3.14-5.78,6.65-11.46,11.45-15.95,7.19-6.73,16.72-10.28,26-13.67a89,89,0,0,0-28.41,63.29c0,1.91,15.33-8.3,16.26-8.36C267.52,370.64,262,386.87,260.71,391.64Z" transform="translate(-21.4 -7.43)" fill="url(#linear-gradient-8)"/><path d="M373.6,393.91c3.85-9.81,7.78-20.23,6-30.62-1.31-7.62-5.63-14.63-6-22.36-.2-4.49,1-9.07,0-13.45-2-8.81-11.74-13.44-16.47-21.15-1.45-2.35-2.29-5.69-.35-7.65,1.4-1.43,3.65-1.48,5.64-1.39a149.11,149.11,0,0,1,51.75,11.8c7.36,3.14,14.82,7.19,19,14s4.4,15.36,4.29,23.4a498.32,498.32,0,0,1-7.1,76.82,6.53,6.53,0,0,1-1.25,3.36c-1.57,1.75-4.36,1.35-6.65.8-14.79-3.54-24.17-4-39-7.49-4.48-1.08-15.87-1.23-19.74-3.29C365.48,410.21,371,400.48,373.6,393.91Z" transform="translate(-21.4 -7.43)" fill="url(#linear-gradient-9)"/><path d="M430.12,278.08c-7-3.37-15.9-4-22.25.53-5.23,3.7-7.83,10.07-9.45,16.26-2.42,9.24-3.21,19.11-.6,28.29s9,17.56,17.88,21.07,20.13,1.28,25.89-6.33c4.64-6.12,5.19-14.3,5.57-22,.32-6.61,3.13-18.29.13-24C444.41,286.38,435.52,280.78,430.12,278.08Z" transform="translate(-21.4 -7.43)" fill="#f3a984"/><path d="M430.12,278.08c-7-3.37-15.9-4-22.25.53-5.23,3.7-7.83,10.07-9.45,16.26-2.42,9.24-3.21,19.11-.6,28.29s9,17.56,17.88,21.07,20.13,1.28,25.89-6.33c4.64-6.12,5.19-14.3,5.57-22,.32-6.61,3.13-18.29.13-24C444.41,286.38,435.52,280.78,430.12,278.08Z" transform="translate(-21.4 -7.43)" fill="url(#linear-gradient-10)"/><rect x="337.35" y="220.26" width="94.95" height="61.18" rx="8.25" transform="translate(129.04 -151.65) rotate(26.22)" fill="#4c65ca"/><rect x="337.51" y="222.12" width="94.49" height="58.78" rx="8.07" transform="matrix(0.9, 0.44, -0.44, 0.9, 129.33, -151.56)" fill="url(#linear-gradient-11)"/><path d="M395.76,288a29.83,29.83,0,0,0-16.61-10.09,11.57,11.57,0,0,0-5.39-.12,5.31,5.31,0,0,0-3.85,3.5,7.25,7.25,0,0,0,.56,4.33c3.42,9.3,10.85,16.74,14.06,26.11,2.68,7.83,6.81,13.9,7.13,22.16.4,10.7-2.32,21.51-.34,32,1.38,7.33,5,14.19,5.63,21.62.42,4.94-.4,10.36,2.32,14.51,3.38,5.16,10.51,5.91,16.67,6.14,5.45.21,11.48.23,15.63-3.32,2.42-2.06,3.82-5.05,5.14-7.94l25.1-54.72c1.43-3.12,2.89-6.39,2.72-9.82-.25-4.79-3.57-8.76-5.61-13.1-6.7-14.2.66-31-1.25-46.59-1.62-13.21-9.81-24.67-18.87-34.42-2.16-2.33-5.1-4.81-8.15-3.92-3.89,1.14-4.29,6.75-2.38,10.32s5.25,6.32,6.6,10.14c1,2.95.75,6.18.46,9.3l-2,21.16c-.52,5.51-1,11-1.94,16.5-1.08,6.55-3.7,14.1-10.1,15.85-5,1.38-10.36-1.68-13.52-5.82s-4.75-9.24-6.85-14S399.07,292,395.76,288Z" transform="translate(-21.4 -7.43)" fill="#f3a984"/><path d="M413.91,391.69c-4.49-.82-9-2.08-13.56-1.77s-9.35,2.64-11,6.9c-.69,1.75-.79,3.68-1.38,5.46-.87,2.64-2.75,4.81-4,7.27-2.1,4-2.61,8.57-3.09,13.05l-3.75,35c23.58,8.52,51.08,11.23,72.85-1.21a9.1,9.1,0,0,0,3.65-3.18c.92-1.67.78-3.7.61-5.59-1.46-16.82-1.3-34.77-4.45-51.34-1.82-9.54-5.33-5.7-13.65-4.3C428.4,393.3,421.49,391.69,413.91,391.69Z" transform="translate(-21.4 -7.43)" fill="#4c65ca"/><path d="M353.85,231.44h6a10.28,10.28,0,0,1,10.28,10.28v.67a4.23,4.23,0,0,1-4.23,4.23H353.85a4.23,4.23,0,0,1-4.23-4.23v-6.72A4.23,4.23,0,0,1,353.85,231.44Z" transform="translate(117.57 -139.69) rotate(25.66)" fill="url(#linear-gradient-12)"/><rect x="359.83" y="255.96" width="4.38" height="6.97" transform="translate(125.95 -138.23) rotate(25.56)" fill="url(#linear-gradient-13)"/><rect x="365.7" y="258.92" width="4.38" height="6.97" transform="translate(127.8 -140.47) rotate(25.56)" fill="url(#linear-gradient-14)"/><rect x="371.57" y="261.88" width="4.38" height="6.97" transform="translate(129.65 -142.71) rotate(25.56)" fill="url(#linear-gradient-15)"/><rect x="377.44" y="264.84" width="4.38" height="6.97" transform="translate(131.51 -144.96) rotate(25.56)" fill="url(#linear-gradient-16)"/><rect x="383.31" y="267.81" width="4.38" height="6.97" transform="translate(133.36 -147.2) rotate(25.56)" fill="url(#linear-gradient-17)"/><rect x="389.18" y="270.77" width="4.38" height="6.97" transform="translate(135.21 -149.44) rotate(25.56)" fill="url(#linear-gradient-18)"/><rect x="395.05" y="273.73" width="4.38" height="6.97" transform="translate(137.06 -151.68) rotate(25.56)" fill="url(#linear-gradient-19)"/><rect x="400.92" y="276.69" width="4.38" height="6.97" transform="translate(138.92 -153.93) rotate(25.56)" fill="url(#linear-gradient-20)"/><rect x="406.79" y="279.65" width="4.38" height="6.97" transform="translate(140.77 -156.17) rotate(25.56)" fill="url(#linear-gradient-21)"/><path d="M265.12,370.68a4.35,4.35,0,0,0,.23-2.33,3.48,3.48,0,0,0-1.62-1.89c-4.56-2.89-10.75-.67-14.8,2.89s-7,8.34-11.19,11.69c-2.46-8.18,1.22-16.81,4.82-24.56,6.56-14.12,14-29.17,27.62-36.65,1.66-.9,3.57-1.88,4.08-3.7.88-3.08-2.92-5.5-6.12-5.61-4.76-.17-9.28,2.07-14,2.48-4,.34-8-.62-12-.57a47.74,47.74,0,0,0-10.51,1.71c-8.12,1.95-16.49,4-23.16,9-4.56,3.43-8.07,8.06-11.31,12.76-4.91,7.11-9.42,14.63-11.81,22.93-4.37,15.16-1.49,32.21-8.57,46.31-2.51,5-6.32,10.21-4.81,15.59,1.19,4.26,5.4,6.92,9.46,8.68a57.84,57.84,0,0,0,26.83,4.61,14.79,14.79,0,0,0,4.85-1,17,17,0,0,0,4.23-3C237.11,412.8,258.37,397.66,265.12,370.68Z" transform="translate(-21.4 -7.43)" fill="#f3a984"/><path d="M320,405.75l-43.69-6.1c-5-.7-7.85-5-6.36-9.62l5.59-17.23c1.49-4.62,6.76-7.79,11.77-7.09l43.69,6.1c5,.7,7.85,5,6.35,9.62l-5.58,17.23C330.3,403.28,325,406.45,320,405.75Z" transform="translate(-21.4 -7.43)" fill="url(#linear-gradient-22)"/><path d="M144.64,440.42c11.25,4.42,22.59,8.87,34.46,11.15s24.45,2.28,35.74-2.05c2.33-.89,4.87-2.29,5.39-4.73.37-1.73-.4-3.48-1.16-5.09l-3.6-7.62a4.86,4.86,0,0,0-4.64-3.41c-7.33-1.28-14.86-2.07-21.72-5-11.44-4.82-12.17-17.58-24.76-9.87C161.59,415.53,142.08,439.41,144.64,440.42Z" transform="translate(-21.4 -7.43)" fill="#4c65ca"/><polygon points="327.52 204 221.59 190.82 237.4 123.73 253.25 125.42 256.82 125.8 302.7 130.71 306.28 131.09 323.59 132.95 327.52 204" fill="#4c65ca"/><path d="M323.9,92.47c-6.21-8.07-15.74-11.64-26.85-10.1a22,22,0,0,0-15.25,9.08c-8.94,12.09-8,32.6-7.15,41.4l3.57.38c-.84-7.92-2-28.36,6.38-39.71a18.9,18.9,0,0,1,12.94-7.68c9.92-1.4,18.08,1.65,23.59,8.76,7.78,10.1,8.83,26.85,3,43.54l3.57.38C333.64,121,332.27,103.33,323.9,92.47Z" transform="translate(-21.4 -7.43)" fill="#4c65ca"/><polygon points="327.52 204 221.59 190.82 237.4 123.73 253.25 125.42 256.82 125.8 302.7 130.71 306.28 131.09 323.59 132.95 327.52 204" fill="#4c65ca"/><path d="M323.9,92.47c-6.21-8.07-15.74-11.64-26.85-10.1a22,22,0,0,0-15.25,9.08c-8.94,12.09-8,32.6-7.15,41.4l3.57.38c-.84-7.92-2-28.36,6.38-39.71a18.9,18.9,0,0,1,12.94-7.68c9.92-1.4,18.08,1.65,23.59,8.76,7.78,10.1,8.83,26.85,3,43.54l3.57.38C333.64,121,332.27,103.33,323.9,92.47Z" transform="translate(-21.4 -7.43)" fill="#4c65ca"/><rect x="379.04" y="114.21" width="106.59" height="19.08" rx="9.02" transform="translate(-5.03 -54.57) rotate(6.36)" fill="url(#linear-gradient-23)"/><rect x="376.57" y="140.37" width="106.59" height="19.08" rx="9.02" transform="translate(-2.15 -54.13) rotate(6.36)" fill="url(#linear-gradient-24)"/><rect x="374.11" y="166.52" width="106.59" height="19.08" rx="9.02" transform="translate(0.73 -53.7) rotate(6.36)" fill="url(#linear-gradient-25)"/></svg>